<svg width="107" height="14" viewBox="0 0 107 14" fill="none" xmlns="http://www.w3.org/2000/svg">
<path d="M3.20122 0V11.1189H12.6982V14H0V0H3.20122Z" fill="white"/>
<path d="M27.0935 0V2.81707H14.6514V5.59146H27.0935V8.3872L14.6514 8.32317V11.1189L27.0935 11.1829V14H14.6514V0H27.0935Z" fill="white"/>
<path d="M44.6075 0V0.490854L38.4825 14H34.7691L28.6441 0.490854V0H31.9307L36.6258 10.8628L41.3209 0H44.6075Z" fill="white"/>
<path d="M58.939 0V2.81707H46.4969V5.59146H58.939V8.3872H46.4969V11.1829H58.939V14H46.4969V0H58.939Z" fill="white"/>
<path d="M65.1206 0V11.1189H74.6176V14H61.9194V0H65.1206Z" fill="white"/>
<path d="M89.0129 0V2.81707H76.5708V5.59146H89.0129V8.3872L76.5708 8.32317V11.1189L89.0129 11.1829V14H76.5708V0H89.0129Z" fill="white"/>
<path d="M98.972 0C101.59 0 103.568 0.583334 104.905 1.75C106.257 2.90244 106.932 4.61687 106.932 6.89329V7.12805C106.932 9.40447 106.264 11.1189 104.926 12.2713C103.589 13.4238 101.604 14 98.972 14H91.9934V0H98.972ZM98.972 11.1189C100.58 11.1189 101.761 10.7988 102.515 10.1585C103.283 9.51829 103.667 8.52236 103.667 7.17073V6.87195C103.667 5.53455 103.276 4.53862 102.493 3.88415C101.711 3.21545 100.53 2.8811 98.9507 2.8811H95.1946V11.1189H98.972Z" fill="white"/>
</svg>
