<svg width="30" height="30" viewBox="0 0 30 30" fill="none" xmlns="http://www.w3.org/2000/svg">
<path fill-rule="evenodd" clip-rule="evenodd" d="M3.75 8.5V8.5C3.75 9.25 4.125 9.875 4.75 10.375L12.25 15.5C14 16.625 16.125 16.625 17.875 15.5L25.375 10.5C25.875 9.875 26.25 9.25 26.25 8.5V8.5C26.25 7.25 25.25 6.25 24 6.25H6C4.75 6.25 3.75 7.25 3.75 8.5Z" stroke="white" stroke-width="1.5" stroke-linecap="round" stroke-linejoin="round"/>
<path d="M3.75 8.75V21.25C3.75 22.625 4.875 23.75 6.25 23.75H23.75C25.125 23.75 26.25 22.625 26.25 21.25V8.75" stroke="white" stroke-width="1.5" stroke-linecap="round" stroke-linejoin="round"/>
<path d="M4.48438 23.0159L12.1019 15.3984" stroke="white" stroke-width="1.5" stroke-linecap="round" stroke-linejoin="round"/>
<path d="M17.9492 15.4492L25.5142 23.0142" stroke="white" stroke-width="1.5" stroke-linecap="round" stroke-linejoin="round"/>
</svg>
